<svg xmlns="http://www.w3.org/2000/svg" viewBox="0 0 1000 600" width="100%" height="100%">
  <defs>
    <linearGradient id="wrCardBg" x1="0%" y1="0%" x2="0%" y2="100%">
      <stop offset="0%" stop-color="#1A212E" stop-opacity="0.95"/>
      <stop offset="100%" stop-color="#141923" stop-opacity="0.95"/>
    </linearGradient>
    <pattern id="wrGrid" width="25" height="25" patternUnits="userSpaceOnUse">
      <path d="M 25 0 L 0 0 0 25" fill="none" stroke="#1F2633" stroke-width="0.8" opacity="0.3"/>
    </pattern>
  </defs>

  <rect width="1000" height="600" fill="#0A0D12"/>
  <rect width="1000" height="600" fill="url(#wrGrid)"/>

  <!-- Telemetry Top -->
  <text x="40" y="44" font-family="'JetBrains Mono', monospace" font-size="11" fill="#00D2FF" letter-spacing="3">MISSION_CONTROL // COLLABORATIVE SYSTEMS ENGINEERING WAR ROOM</text>
  <text x="780" y="44" font-family="'JetBrains Mono', monospace" font-size="11" fill="#0052FF" letter-spacing="2">ACTIVE LIVE ENGAGEMENT</text>
  <line x1="40" y1="58" x2="960" y2="58" stroke="#1F2633" stroke-width="1"/>

  <!-- Left: Live Telemetry & Terminal Console -->
  <g transform="translate(60, 90)">
    <rect width="520" height="460" rx="8" fill="url(#wrCardBg)" stroke="#0052FF" stroke-width="1.5"/>
    <rect x="0" y="0" width="520" height="34" rx="8" fill="#141923"/>
    <circle cx="20" cy="17" r="4" fill="#FF5F56"/>
    <circle cx="34" cy="17" r="4" fill="#FFBD2E"/>
    <circle cx="48" cy="17" r="4" fill="#27C93F"/>
    <text x="70" y="21" font-family="'JetBrains Mono', monospace" font-size="11" fill="#8A99AD">nexus-architect-console // session: live-brief-exec</text>

    <!-- Terminal Content -->
    <g transform="translate(24, 60)">
      <text x="0" y="0" font-family="'JetBrains Mono', monospace" font-size="11" fill="#00D2FF">$ nexus-cli inspect-cluster --env=prod --tenant=all</text>
      <text x="0" y="24" font-family="'JetBrains Mono', monospace" font-size="11" fill="#8A99AD">[INFO] Initializing multi-region control plane probe...</text>
      <text x="0" y="46" font-family="'JetBrains Mono', monospace" font-size="11" fill="#FFFFFF">[OK] Region us-east-1: 42 Pods healthy | Latency: 12.4ms</text>
      <text x="0" y="68" font-family="'JetBrains Mono', monospace" font-size="11" fill="#FFFFFF">[OK] Region eu-central-1: 42 Pods healthy | Latency: 16.1ms</text>
      <text x="0" y="90" font-family="'JetBrains Mono', monospace" font-size="11" fill="#00D2FF">[INFO] Vector index memory occupancy: 34.2 GB / 64.0 GB</text>
      <text x="0" y="112" font-family="'JetBrains Mono', monospace" font-size="11" fill="#8A99AD">[SECURITY] HSM Key Attestation: VALID [0x9F4C2A]</text>
      <text x="0" y="134" font-family="'JetBrains Mono', monospace" font-size="11" fill="#8A99AD">[SECURITY] Zero data breaches recorded in 1,420 operational days</text>
      <text x="0" y="156" font-family="'JetBrains Mono', monospace" font-size="11" fill="#0052FF">[BRIEF] Architectural Roadmap delivery status: 48h GUARANTEE</text>
      
      <!-- Interactive simulated wave line -->
      <line x1="0" y1="190" x2="470" y2="190" stroke="#1F2633"/>
      <text x="0" y="215" font-family="'JetBrains Mono', monospace" font-size="10" fill="#8A99AD">REAL-TIME INGRESS THROUGHPUT (REQ/S)</text>
      <path d="M 0 280 Q 40 240 80 270 T 160 230 T 240 260 T 320 220 T 400 240 L 470 210" fill="none" stroke="#00D2FF" stroke-width="2"/>
      <path d="M 0 280 Q 40 240 80 270 T 160 230 T 240 260 T 320 220 T 400 240 L 470 210 L 470 320 L 0 320 Z" fill="#00D2FF" opacity="0.1"/>

      <text x="0" y="345" font-family="'JetBrains Mono', monospace" font-size="10" fill="#00D2FF">PEAK: 512,000 REQ/SEC // ZERO PACKET LOSS</text>
      <text x="310" y="345" font-family="'JetBrains Mono', monospace" font-size="10" fill="#8A99AD">SYSTEM LOAD: 24.1%</text>
    </g>
  </g>

  <!-- Right: Direct Senior Architect Access & Team Deployment -->
  <g transform="translate(610, 90)">
    <rect width="330" height="460" rx="8" fill="url(#wrCardBg)" stroke="#1F2633" stroke-width="1.5"/>
    <rect x="0" y="0" width="330" height="4" rx="2" fill="#00D2FF"/>
    
    <text x="24" y="36" font-family="'JetBrains Mono', monospace" font-size="11" fill="#00D2FF">ENGINEERING ENGAGEMENT</text>
    <text x="24" y="64" font-family="'Inter', sans-serif" font-size="18" font-weight="700" fill="#FFFFFF">Direct Architect Access</text>
    <text x="24" y="90" font-family="'Inter', sans-serif" font-size="12" fill="#8A99AD">Zero intermediary account managers. You work directly with Principal Distributed Systems and ML Systems Architects.</text>

    <!-- Pillar 1 -->
    <g transform="translate(24, 130)">
      <rect width="282" height="64" rx="6" fill="#0A0D12" stroke="#1F2633"/>
      <text x="16" y="26" font-family="'Inter', sans-serif" font-size="13" font-weight="700" fill="#FFFFFF">Senior Systems Engineers Only</text>
      <text x="16" y="46" font-family="'JetBrains Mono', monospace" font-size="10" fill="#8A99AD">Ex-BigTech Core Infra Leads</text>
    </g>

    <!-- Pillar 2 -->
    <g transform="translate(24, 210)">
      <rect width="282" height="64" rx="6" fill="#0A0D12" stroke="#1F2633"/>
      <text x="16" y="26" font-family="'Inter', sans-serif" font-size="13" font-weight="700" fill="#FFFFFF">48-Hour Technical Synthesis</text>
      <text x="16" y="46" font-family="'JetBrains Mono', monospace" font-size="10" fill="#00D2FF">Written Production Architecture</text>
    </g>

    <!-- Pillar 3 -->
    <g transform="translate(24, 290)">
      <rect width="282" height="64" rx="6" fill="#0A0D12" stroke="#1F2633"/>
      <text x="16" y="26" font-family="'Inter', sans-serif" font-size="13" font-weight="700" fill="#FFFFFF">Full Source Code Handover</text>
      <text x="16" y="46" font-family="'JetBrains Mono', monospace" font-size="10" fill="#8A99AD">100% IP, Docker &amp; Terraform</text>
    </g>

    <!-- Pillar 4 -->
    <g transform="translate(24, 370)">
      <rect width="282" height="64" rx="6" fill="#0A0D12" stroke="#0052FF"/>
      <text x="16" y="26" font-family="'Inter', sans-serif" font-size="13" font-weight="700" fill="#FFFFFF">Zero Vendor Lock-In</text>
      <text x="16" y="46" font-family="'JetBrains Mono', monospace" font-size="10" fill="#0052FF">Deploy AWS / GCP / Bare Metal</text>
    </g>
  </g>
</svg>
